<mxfile version="13.6.5" type="github" host="app.diagrams.net" modified="2020-08-26T07:06:19.943Z" agent="5.0 (Windows NT 10.0; Win64; x64) AppleWebKit/537.36 (KHTML, like Gecko) Chrome/70.0.3538.102 Safari/537.36 Edge/18.18363" etag="23Djl9tryCHcp--_d1Dw">
  <diagram id="6UJGkoR6RnkgBrW9vDAt" name="Page-1">
    <mxGraphModel grid="1" dx="1449" dy="577" gridSize="10" guides="1" tooltips="1" connect="1" arrows="1" fold="1" page="1" pageScale="1" pageWidth="827" pageHeight="1169" math="0" shadow="0">
      <root>
        <mxCell id="0" />
        <mxCell id="1" parent="0" />
        <mxCell id="lEMxjgnDE3hor83zUmYU-12" value="" parent="1" style="rounded=0;whiteSpace=wrap;html=1;" vertex="1">
          <mxGeometry as="geometry" x="130" y="100" width="180" height="210" />
        </mxCell>
        <mxCell id="lEMxjgnDE3hor83zUmYU-18" parent="1" style="edgeStyle=orthogonalEdgeStyle;rounded=0;orthogonalLoop=1;jettySize=auto;html=1;exitX=0.5;exitY=0;exitDx=0;exitDy=0;entryX=0.5;entryY=1;entryDx=0;entryDy=0;" edge="1" source="lEMxjgnDE3hor83zUmYU-1" target="lEMxjgnDE3hor83zUmYU-17">
          <mxGeometry as="geometry" relative="1" />
        </mxCell>
        <mxCell id="lEMxjgnDE3hor83zUmYU-1" value="Location" parent="1" style="rounded=0;whiteSpace=wrap;html=1;" vertex="1">
          <mxGeometry as="geometry" x="160" y="190" width="120" height="40" />
        </mxCell>
        <mxCell id="lEMxjgnDE3hor83zUmYU-16" parent="1" style="edgeStyle=orthogonalEdgeStyle;rounded=0;orthogonalLoop=1;jettySize=auto;html=1;exitX=0.5;exitY=0;exitDx=0;exitDy=0;" edge="1" source="lEMxjgnDE3hor83zUmYU-2" target="lEMxjgnDE3hor83zUmYU-1">
          <mxGeometry as="geometry" relative="1" />
        </mxCell>
        <mxCell id="lEMxjgnDE3hor83zUmYU-2" value="Authentification" parent="1" style="rounded=0;whiteSpace=wrap;html=1;" vertex="1">
          <mxGeometry as="geometry" x="160" y="250" width="120" height="40" />
        </mxCell>
        <mxCell id="lEMxjgnDE3hor83zUmYU-3" value="BTAnode" parent="1" style="rounded=0;whiteSpace=wrap;html=1;" vertex="1">
          <mxGeometry as="geometry" x="440" y="160" width="120" height="40" />
        </mxCell>
        <mxCell id="lEMxjgnDE3hor83zUmYU-4" value="BTAnode" parent="1" style="rounded=0;whiteSpace=wrap;html=1;" vertex="1">
          <mxGeometry as="geometry" x="440" y="250" width="120" height="40" />
        </mxCell>
        <mxCell id="lEMxjgnDE3hor83zUmYU-5" value="" parent="1" style="endArrow=none;html=1;" edge="1">
          <mxGeometry as="geometry" width="50" height="50" relative="1">
            <mxPoint as="sourcePoint" x="420" y="320" />
            <mxPoint as="targetPoint" x="420" y="120" />
          </mxGeometry>
        </mxCell>
        <mxCell id="lEMxjgnDE3hor83zUmYU-6" value="" parent="1" style="endArrow=none;html=1;" edge="1">
          <mxGeometry as="geometry" width="50" height="50" relative="1">
            <mxPoint as="sourcePoint" x="420" y="270" />
            <mxPoint as="targetPoint" x="440" y="270" />
          </mxGeometry>
        </mxCell>
        <mxCell id="lEMxjgnDE3hor83zUmYU-8" value="" parent="1" style="endArrow=none;html=1;entryX=0;entryY=0.75;entryDx=0;entryDy=0;" edge="1" target="lEMxjgnDE3hor83zUmYU-3">
          <mxGeometry as="geometry" width="50" height="50" relative="1">
            <mxPoint as="sourcePoint" x="420" y="190" />
            <mxPoint as="targetPoint" x="440" y="270" />
          </mxGeometry>
        </mxCell>
        <mxCell id="lEMxjgnDE3hor83zUmYU-9" value="BTCAN BUS" parent="1" style="text;html=1;strokeColor=none;fillColor=none;align=center;verticalAlign=middle;whiteSpace=wrap;rounded=0;" vertex="1">
          <mxGeometry as="geometry" x="430" y="120" width="50" height="20" />
        </mxCell>
        <mxCell id="lEMxjgnDE3hor83zUmYU-11" value="" parent="1" style="endArrow=none;html=1;" edge="1">
          <mxGeometry as="geometry" width="50" height="50" relative="1">
            <mxPoint as="sourcePoint" x="310" y="230" />
            <mxPoint as="targetPoint" x="420" y="230" />
          </mxGeometry>
        </mxCell>
        <mxCell id="lEMxjgnDE3hor83zUmYU-13" value="iMX" parent="1" style="text;html=1;strokeColor=none;fillColor=none;align=center;verticalAlign=middle;whiteSpace=wrap;rounded=0;" vertex="1">
          <mxGeometry as="geometry" x="270" y="100" width="40" height="20" />
        </mxCell>
        <mxCell id="lEMxjgnDE3hor83zUmYU-17" value="Judgement" parent="1" style="rounded=0;whiteSpace=wrap;html=1;" vertex="1">
          <mxGeometry as="geometry" x="160" y="130" width="120" height="40" />
        </mxCell>
        <mxCell id="lEMxjgnDE3hor83zUmYU-19" value="BT-manager" parent="1" style="text;html=1;strokeColor=none;fillColor=none;align=center;verticalAlign=middle;whiteSpace=wrap;rounded=0;" vertex="1">
          <mxGeometry as="geometry" x="130" y="100" width="70" height="20" />
        </mxCell>
      </root>
    </mxGraphModel>
  </diagram>
</mxfile>
